<?xml version="1.0" encoding="utf-8" standalone="no"?>
<!DOCTYPE svg PUBLIC "-//W3C//DTD SVG 1.1//EN"
  "http://www.w3.org/Graphics/SVG/1.1/DTD/svg11.dtd">
<!-- Created with matplotlib (https://matplotlib.org/) -->
<svg height="259.921901pt" version="1.1" viewBox="0 0 516.273438 259.921901" width="516.273438pt" xmlns="http://www.w3.org/2000/svg" xmlns:xlink="http://www.w3.org/1999/xlink">
 <defs>
  <style type="text/css">
*{stroke-linecap:butt;stroke-linejoin:round;}
  </style>
 </defs>
 <g id="figure_1">
  <g id="patch_1">
   <path d="M 0 259.921901 
L 516.273438 259.921901 
L 516.273438 0 
L 0 0 
z
" style="fill:#ffffff;"/>
  </g>
  <g id="axes_1">
   <g id="patch_2">
    <path d="M 41.2 229.372838 
L 376 229.372838 
L 376 11.932838 
L 41.2 11.932838 
z
" style="fill:#ffffff;"/>
   </g>
   <g id="matplotlib.axis_1">
    <g id="xtick_1">
     <g id="line2d_1">
      <defs>
       <path d="M 0 0 
L 0 3.5 
" id="m3d9ea69962" style="stroke:#000000;stroke-width:0.8;"/>
      </defs>
      <g>
       <use style="stroke:#000000;stroke-width:0.8;" x="47.722078" xlink:href="#m3d9ea69962" y="229.372838"/>
      </g>
     </g>
     <g id="text_1">
      <!-- 0 -->
      <defs>
       <path d="M 3.609375 32.71875 
Q 3.609375 44.046875 7.03125 52.21875 
Q 10.453125 60.40625 16.109375 64.40625 
Q 20.515625 67.578125 25.203125 67.578125 
Q 32.8125 67.578125 38.875 59.8125 
Q 46.4375 50.203125 46.4375 33.734375 
Q 46.4375 22.21875 43.109375 14.15625 
Q 39.796875 6.109375 34.640625 2.46875 
Q 29.5 -1.171875 24.703125 -1.171875 
Q 15.234375 -1.171875 8.9375 10.015625 
Q 3.609375 19.4375 3.609375 32.71875 
z
M 13.1875 31.5 
Q 13.1875 17.828125 16.546875 9.1875 
Q 19.34375 1.90625 24.859375 1.90625 
Q 27.484375 1.90625 30.3125 4.265625 
Q 33.15625 6.640625 34.625 12.203125 
Q 36.859375 20.609375 36.859375 35.890625 
Q 36.859375 47.21875 34.515625 54.78125 
Q 32.765625 60.40625 29.984375 62.75 
Q 27.984375 64.359375 25.140625 64.359375 
Q 21.828125 64.359375 19.234375 61.375 
Q 15.71875 57.328125 14.453125 48.625 
Q 13.1875 39.9375 13.1875 31.5 
z
" id="TimesNewRomanPSMT-48"/>
      </defs>
      <g transform="translate(43.222078 248.871588)scale(0.18 -0.18)">
       <use xlink:href="#TimesNewRomanPSMT-48"/>
      </g>
     </g>
    </g>
    <g id="xtick_2">
     <g id="line2d_2">
      <g>
       <use style="stroke:#000000;stroke-width:0.8;" x="134.683117" xlink:href="#m3d9ea69962" y="229.372838"/>
      </g>
     </g>
     <g id="text_2">
      <!-- 10 -->
      <defs>
       <path d="M 11.71875 59.71875 
L 27.828125 67.578125 
L 29.4375 67.578125 
L 29.4375 11.671875 
Q 29.4375 6.109375 29.90625 4.734375 
Q 30.375 3.375 31.828125 2.640625 
Q 33.296875 1.90625 37.796875 1.8125 
L 37.796875 0 
L 12.890625 0 
L 12.890625 1.8125 
Q 17.578125 1.90625 18.9375 2.609375 
Q 20.3125 3.328125 20.84375 4.515625 
Q 21.390625 5.71875 21.390625 11.671875 
L 21.390625 47.40625 
Q 21.390625 54.640625 20.90625 56.6875 
Q 20.5625 58.25 19.65625 58.984375 
Q 18.75 59.71875 17.484375 59.71875 
Q 15.671875 59.71875 12.453125 58.203125 
z
" id="TimesNewRomanPSMT-49"/>
      </defs>
      <g transform="translate(125.683117 248.871588)scale(0.18 -0.18)">
       <use xlink:href="#TimesNewRomanPSMT-49"/>
       <use x="50" xlink:href="#TimesNewRomanPSMT-48"/>
      </g>
     </g>
    </g>
    <g id="xtick_3">
     <g id="line2d_3">
      <g>
       <use style="stroke:#000000;stroke-width:0.8;" x="221.644156" xlink:href="#m3d9ea69962" y="229.372838"/>
      </g>
     </g>
     <g id="text_3">
      <!-- 20 -->
      <defs>
       <path d="M 45.84375 12.75 
L 41.21875 0 
L 2.15625 0 
L 2.15625 1.8125 
Q 19.390625 17.53125 26.421875 27.484375 
Q 33.453125 37.453125 33.453125 45.703125 
Q 33.453125 52 29.59375 56.046875 
Q 25.734375 60.109375 20.359375 60.109375 
Q 15.484375 60.109375 11.59375 57.25 
Q 7.71875 54.390625 5.859375 48.875 
L 4.046875 48.875 
Q 5.28125 57.90625 10.328125 62.734375 
Q 15.375 67.578125 22.953125 67.578125 
Q 31 67.578125 36.390625 62.40625 
Q 41.796875 57.234375 41.796875 50.203125 
Q 41.796875 45.171875 39.453125 40.140625 
Q 35.84375 32.234375 27.734375 23.390625 
Q 15.578125 10.109375 12.546875 7.375 
L 29.828125 7.375 
Q 35.109375 7.375 37.234375 7.765625 
Q 39.359375 8.15625 41.0625 9.34375 
Q 42.78125 10.546875 44.046875 12.75 
z
" id="TimesNewRomanPSMT-50"/>
      </defs>
      <g transform="translate(212.644156 248.871588)scale(0.18 -0.18)">
       <use xlink:href="#TimesNewRomanPSMT-50"/>
       <use x="50" xlink:href="#TimesNewRomanPSMT-48"/>
      </g>
     </g>
    </g>
    <g id="xtick_4">
     <g id="line2d_4">
      <g>
       <use style="stroke:#000000;stroke-width:0.8;" x="308.605195" xlink:href="#m3d9ea69962" y="229.372838"/>
      </g>
     </g>
     <g id="text_4">
      <!-- 30 -->
      <defs>
       <path d="M 5.078125 53.609375 
Q 7.90625 60.296875 12.21875 63.9375 
Q 16.546875 67.578125 23 67.578125 
Q 30.953125 67.578125 35.203125 62.40625 
Q 38.421875 58.546875 38.421875 54.15625 
Q 38.421875 46.921875 29.34375 39.203125 
Q 35.453125 36.8125 38.578125 32.375 
Q 41.703125 27.9375 41.703125 21.921875 
Q 41.703125 13.328125 36.234375 7.03125 
Q 29.109375 -1.171875 15.578125 -1.171875 
Q 8.890625 -1.171875 6.46875 0.484375 
Q 4.046875 2.15625 4.046875 4.046875 
Q 4.046875 5.46875 5.1875 6.546875 
Q 6.34375 7.625 7.953125 7.625 
Q 9.1875 7.625 10.453125 7.234375 
Q 11.28125 6.984375 14.203125 5.4375 
Q 17.140625 3.90625 18.265625 3.609375 
Q 20.0625 3.078125 22.125 3.078125 
Q 27.09375 3.078125 30.78125 6.9375 
Q 34.46875 10.796875 34.46875 16.0625 
Q 34.46875 19.921875 32.765625 23.578125 
Q 31.5 26.3125 29.984375 27.734375 
Q 27.875 29.6875 24.21875 31.265625 
Q 20.5625 32.859375 16.75 32.859375 
L 15.1875 32.859375 
L 15.1875 34.328125 
Q 19.046875 34.8125 22.921875 37.109375 
Q 26.8125 39.40625 28.5625 42.625 
Q 30.328125 45.84375 30.328125 49.703125 
Q 30.328125 54.734375 27.171875 57.828125 
Q 24.03125 60.9375 19.34375 60.9375 
Q 11.765625 60.9375 6.6875 52.828125 
z
" id="TimesNewRomanPSMT-51"/>
      </defs>
      <g transform="translate(299.605195 248.871588)scale(0.18 -0.18)">
       <use xlink:href="#TimesNewRomanPSMT-51"/>
       <use x="50" xlink:href="#TimesNewRomanPSMT-48"/>
      </g>
     </g>
    </g>
   </g>
   <g id="matplotlib.axis_2">
    <g id="ytick_1">
     <g id="line2d_5">
      <defs>
       <path d="M 0 0 
L -3.5 0 
" id="mbb85a8973c" style="stroke:#000000;stroke-width:0.8;"/>
      </defs>
      <g>
       <use style="stroke:#000000;stroke-width:0.8;" x="41.2" xlink:href="#mbb85a8973c" y="222.626864"/>
      </g>
     </g>
     <g id="text_5">
      <!-- 0 -->
      <g transform="translate(25.2 228.876239)scale(0.18 -0.18)">
       <use xlink:href="#TimesNewRomanPSMT-48"/>
      </g>
     </g>
    </g>
    <g id="ytick_2">
     <g id="line2d_6">
      <g>
       <use style="stroke:#000000;stroke-width:0.8;" x="41.2" xlink:href="#mbb85a8973c" y="170.332492"/>
      </g>
     </g>
     <g id="text_6">
      <!-- 50 -->
      <defs>
       <path d="M 43.40625 66.21875 
L 39.59375 57.90625 
L 19.671875 57.90625 
L 15.328125 49.03125 
Q 28.265625 47.125 35.84375 39.40625 
Q 42.328125 32.765625 42.328125 23.78125 
Q 42.328125 18.5625 40.203125 14.109375 
Q 38.09375 9.671875 34.859375 6.546875 
Q 31.640625 3.421875 27.6875 1.515625 
Q 22.078125 -1.171875 16.15625 -1.171875 
Q 10.203125 -1.171875 7.484375 0.84375 
Q 4.78125 2.875 4.78125 5.328125 
Q 4.78125 6.6875 5.90625 7.734375 
Q 7.03125 8.796875 8.734375 8.796875 
Q 10.015625 8.796875 10.96875 8.40625 
Q 11.921875 8.015625 14.203125 6.390625 
Q 17.875 3.859375 21.625 3.859375 
Q 27.34375 3.859375 31.65625 8.171875 
Q 35.984375 12.5 35.984375 18.703125 
Q 35.984375 24.703125 32.125 29.90625 
Q 28.265625 35.109375 21.484375 37.9375 
Q 16.15625 40.140625 6.984375 40.484375 
L 19.671875 66.21875 
z
" id="TimesNewRomanPSMT-53"/>
      </defs>
      <g transform="translate(16.2 176.581867)scale(0.18 -0.18)">
       <use xlink:href="#TimesNewRomanPSMT-53"/>
       <use x="50" xlink:href="#TimesNewRomanPSMT-48"/>
      </g>
     </g>
    </g>
    <g id="ytick_3">
     <g id="line2d_7">
      <g>
       <use style="stroke:#000000;stroke-width:0.8;" x="41.2" xlink:href="#mbb85a8973c" y="118.03812"/>
      </g>
     </g>
     <g id="text_7">
      <!-- 100 -->
      <g transform="translate(7.2 124.287495)scale(0.18 -0.18)">
       <use xlink:href="#TimesNewRomanPSMT-49"/>
       <use x="50" xlink:href="#TimesNewRomanPSMT-48"/>
       <use x="100" xlink:href="#TimesNewRomanPSMT-48"/>
      </g>
     </g>
    </g>
    <g id="ytick_4">
     <g id="line2d_8">
      <g>
       <use style="stroke:#000000;stroke-width:0.8;" x="41.2" xlink:href="#mbb85a8973c" y="65.743747"/>
      </g>
     </g>
     <g id="text_8">
      <!-- 150 -->
      <g transform="translate(7.2 71.993122)scale(0.18 -0.18)">
       <use xlink:href="#TimesNewRomanPSMT-49"/>
       <use x="50" xlink:href="#TimesNewRomanPSMT-53"/>
       <use x="100" xlink:href="#TimesNewRomanPSMT-48"/>
      </g>
     </g>
    </g>
    <g id="ytick_5">
     <g id="line2d_9">
      <g>
       <use style="stroke:#000000;stroke-width:0.8;" x="41.2" xlink:href="#mbb85a8973c" y="13.449375"/>
      </g>
     </g>
     <g id="text_9">
      <!-- 200 -->
      <g transform="translate(7.2 19.69875)scale(0.18 -0.18)">
       <use xlink:href="#TimesNewRomanPSMT-50"/>
       <use x="50" xlink:href="#TimesNewRomanPSMT-48"/>
       <use x="100" xlink:href="#TimesNewRomanPSMT-48"/>
      </g>
     </g>
    </g>
   </g>
   <g id="line2d_10">
    <path clip-path="url(#peed0779c08)" d="M 56.418182 219.489202 
L 65.114286 155.690068 
L 73.81039 21.816475 
L 82.506494 88.753271 
L 91.202597 21.816475 
L 99.898701 88.753271 
L 108.594805 21.816475 
L 117.290909 88.753271 
L 125.987013 21.816475 
L 134.683117 88.753271 
L 143.379221 21.816475 
L 152.075325 88.753271 
L 160.771429 21.816475 
L 169.467532 88.753271 
L 178.163636 21.816475 
L 186.85974 88.753271 
L 195.555844 21.816475 
L 204.251948 88.753271 
L 212.948052 21.816475 
L 221.644156 88.753271 
L 230.34026 21.816475 
L 239.036364 88.753271 
L 247.732468 21.816475 
L 256.428571 88.753271 
L 265.124675 21.816475 
L 273.820779 88.753271 
L 282.516883 21.816475 
L 291.212987 88.753271 
L 299.909091 21.816475 
L 308.605195 88.753271 
L 317.301299 21.816475 
L 325.997403 88.753271 
L 334.693506 21.816475 
L 343.38961 88.753271 
L 352.085714 155.690068 
L 360.781818 219.489202 
" style="fill:none;stroke:#1f77b4;stroke-linecap:square;stroke-width:1.5;"/>
   </g>
   <g id="line2d_11">
    <path clip-path="url(#peed0779c08)" d="M 56.418182 219.489202 
L 65.114286 206.938552 
L 73.81039 195.433791 
L 82.506494 179.745479 
L 91.202597 147.322968 
L 99.898701 161.965392 
L 108.594805 125.359332 
L 117.290909 152.552405 
L 125.987013 110.716907 
L 134.683117 147.322968 
L 143.379221 104.441583 
L 152.075325 145.231193 
L 160.771429 98.166258 
L 169.467532 144.185306 
L 178.163636 98.166258 
L 186.85974 144.185306 
L 195.555844 89.799159 
L 204.251948 144.185306 
L 212.948052 89.799159 
L 221.644156 144.185306 
L 230.34026 84.569721 
L 239.036364 144.185306 
L 247.732468 82.477946 
L 256.428571 144.185306 
L 265.124675 84.569721 
L 273.820779 144.185306 
L 282.516883 81.432059 
L 291.212987 144.185306 
L 299.909091 83.523834 
L 308.605195 145.231193 
L 317.301299 84.569721 
L 325.997403 145.231193 
L 334.693506 87.707384 
L 343.38961 144.185306 
L 352.085714 155.690068 
L 360.781818 219.489202 
" style="fill:none;stroke:#ff7f0e;stroke-linecap:square;stroke-width:1.5;"/>
   </g>
   <g id="line2d_12">
    <path clip-path="url(#peed0779c08)" d="M 56.418182 219.489202 
L 65.114286 211.122102 
L 73.81039 206.938552 
L 82.506494 199.61734 
L 91.202597 189.158466 
L 99.898701 189.158466 
L 108.594805 174.516042 
L 117.290909 177.653704 
L 125.987013 154.64418 
L 134.683117 168.240717 
L 143.379221 143.139418 
L 152.075325 161.965392 
L 160.771429 130.588769 
L 169.467532 158.82773 
L 178.163636 129.542881 
L 186.85974 155.690068 
L 195.555844 119.084007 
L 204.251948 154.64418 
L 212.948052 112.808682 
L 221.644156 153.598293 
L 230.34026 108.625133 
L 239.036364 152.552405 
L 247.732468 103.395695 
L 256.428571 152.552405 
L 265.124675 104.441583 
L 273.820779 152.552405 
L 282.516883 100.258033 
L 291.212987 153.598293 
L 299.909091 104.441583 
L 308.605195 153.598293 
L 317.301299 107.579245 
L 325.997403 153.598293 
L 334.693506 110.716907 
L 343.38961 152.552405 
L 352.085714 155.690068 
L 360.781818 219.489202 
" style="fill:none;stroke:#2ca02c;stroke-linecap:square;stroke-width:1.5;"/>
   </g>
   <g id="line2d_13">
    <path clip-path="url(#peed0779c08)" d="M 56.418182 219.489202 
L 65.114286 212.16799 
L 73.81039 207.98444 
L 82.506494 201.709115 
L 91.202597 193.342016 
L 99.898701 192.296128 
L 108.594805 180.791366 
L 117.290909 181.837254 
L 125.987013 161.965392 
L 134.683117 172.424267 
L 143.379221 149.414743 
L 152.075325 165.103055 
L 160.771429 135.818206 
L 169.467532 160.919505 
L 178.163636 134.772319 
L 186.85974 157.781843 
L 195.555844 124.313444 
L 204.251948 156.735955 
L 212.948052 118.03812 
L 221.644156 154.64418 
L 230.34026 112.808682 
L 239.036364 154.64418 
L 247.732468 108.625133 
L 256.428571 154.64418 
L 265.124675 107.579245 
L 273.820779 154.64418 
L 282.516883 104.441583 
L 291.212987 154.64418 
L 299.909091 108.625133 
L 308.605195 154.64418 
L 317.301299 111.762795 
L 325.997403 154.64418 
L 334.693506 114.900457 
L 343.38961 153.598293 
L 352.085714 155.690068 
L 360.781818 219.489202 
" style="fill:none;stroke:#d62728;stroke-linecap:square;stroke-width:1.5;"/>
   </g>
   <g id="line2d_14">
    <path clip-path="url(#peed0779c08)" d="M 56.418182 219.489202 
L 65.114286 213.213877 
L 73.81039 210.076215 
L 82.506494 203.80089 
L 91.202597 196.479678 
L 99.898701 196.479678 
L 108.594805 184.974916 
L 117.290909 187.066691 
L 125.987013 170.332492 
L 134.683117 176.607817 
L 143.379221 157.781843 
L 152.075325 169.286604 
L 160.771429 144.185306 
L 169.467532 165.103055 
L 178.163636 142.093531 
L 186.85974 161.965392 
L 195.555844 133.726431 
L 204.251948 158.82773 
L 212.948052 126.405219 
L 221.644156 157.781843 
L 230.34026 122.221669 
L 239.036364 156.735955 
L 247.732468 114.900457 
L 256.428571 155.690068 
L 265.124675 114.900457 
L 273.820779 155.690068 
L 282.516883 113.85457 
L 291.212987 155.690068 
L 299.909091 115.946345 
L 308.605195 155.690068 
L 317.301299 118.03812 
L 325.997403 155.690068 
L 334.693506 122.221669 
L 343.38961 155.690068 
L 352.085714 155.690068 
L 360.781818 219.489202 
" style="fill:none;stroke:#9467bd;stroke-linecap:square;stroke-width:1.5;"/>
   </g>
   <g id="line2d_15">
    <path clip-path="url(#peed0779c08)" d="M 56.418182 219.489202 
L 65.114286 213.213877 
L 73.81039 211.122102 
L 82.506494 204.846778 
L 91.202597 199.61734 
L 99.898701 198.571453 
L 108.594805 190.204353 
L 117.290909 190.204353 
L 125.987013 174.516042 
L 134.683117 179.745479 
L 143.379221 160.919505 
L 152.075325 171.378379 
L 160.771429 146.277081 
L 169.467532 167.19483 
L 178.163636 144.185306 
L 186.85974 163.01128 
L 195.555844 134.772319 
L 204.251948 160.919505 
L 212.948052 126.405219 
L 221.644156 158.82773 
L 230.34026 122.221669 
L 239.036364 157.781843 
L 247.732468 115.946345 
L 256.428571 157.781843 
L 265.124675 115.946345 
L 273.820779 156.735955 
L 282.516883 111.762795 
L 291.212987 156.735955 
L 299.909091 115.946345 
L 308.605195 156.735955 
L 317.301299 119.084007 
L 325.997403 156.735955 
L 334.693506 122.221669 
L 343.38961 156.735955 
L 352.085714 155.690068 
L 360.781818 219.489202 
" style="fill:none;stroke:#8c564b;stroke-linecap:square;stroke-width:1.5;"/>
   </g>
   <g id="line2d_16">
    <path clip-path="url(#peed0779c08)" d="M 56.418182 219.489202 
L 65.114286 214.259765 
L 73.81039 212.16799 
L 82.506494 206.938552 
L 91.202597 201.709115 
L 99.898701 200.663228 
L 108.594805 193.342016 
L 117.290909 193.342016 
L 125.987013 179.745479 
L 134.683117 182.883141 
L 143.379221 167.19483 
L 152.075325 174.516042 
L 160.771429 151.506518 
L 169.467532 170.332492 
L 178.163636 148.368856 
L 186.85974 166.148942 
L 195.555844 138.955869 
L 204.251948 163.01128 
L 212.948052 131.634656 
L 221.644156 160.919505 
L 230.34026 126.405219 
L 239.036364 159.873617 
L 247.732468 120.129894 
L 256.428571 158.82773 
L 265.124675 120.129894 
L 273.820779 158.82773 
L 282.516883 114.900457 
L 291.212987 158.82773 
L 299.909091 120.129894 
L 308.605195 157.781843 
L 317.301299 122.221669 
L 325.997403 157.781843 
L 334.693506 126.405219 
L 343.38961 157.781843 
L 352.085714 155.690068 
L 360.781818 219.489202 
" style="fill:none;stroke:#e377c2;stroke-linecap:square;stroke-width:1.5;"/>
   </g>
   <g id="patch_3">
    <path d="M 41.2 229.372838 
L 41.2 11.932838 
" style="fill:none;stroke:#000000;stroke-linecap:square;stroke-linejoin:miter;stroke-width:0.8;"/>
   </g>
   <g id="patch_4">
    <path d="M 376 229.372838 
L 376 11.932838 
" style="fill:none;stroke:#000000;stroke-linecap:square;stroke-linejoin:miter;stroke-width:0.8;"/>
   </g>
   <g id="patch_5">
    <path d="M 41.2 229.372838 
L 376 229.372838 
" style="fill:none;stroke:#000000;stroke-linecap:square;stroke-linejoin:miter;stroke-width:0.8;"/>
   </g>
   <g id="patch_6">
    <path d="M 41.2 11.932838 
L 376 11.932838 
" style="fill:none;stroke:#000000;stroke-linecap:square;stroke-linejoin:miter;stroke-width:0.8;"/>
   </g>
   <g id="legend_1">
    <g id="patch_7">
     <path d="M 388.6 204.485026 
L 505.473437 204.485026 
Q 509.073438 204.485026 509.073438 200.885026 
L 509.073438 24.532838 
Q 509.073438 20.932838 505.473437 20.932838 
L 388.6 20.932838 
Q 385 20.932838 385 24.532838 
L 385 200.885026 
Q 385 204.485026 388.6 204.485026 
z
" style="fill:#ffffff;opacity:0.8;stroke:#cccccc;stroke-linejoin:miter;"/>
    </g>
    <g id="line2d_17">
     <path d="M 392.2 34.432838 
L 428.2 34.432838 
" style="fill:none;stroke:#1f77b4;stroke-linecap:square;stroke-width:1.5;"/>
    </g>
    <g id="line2d_18"/>
    <g id="text_10">
     <!-- Teacher -->
     <defs>
      <path d="M 57.859375 66.21875 
L 58.59375 50.6875 
L 56.734375 50.6875 
Q 56.203125 54.78125 55.28125 56.546875 
Q 53.765625 59.375 51.25 60.71875 
Q 48.734375 62.0625 44.625 62.0625 
L 35.296875 62.0625 
L 35.296875 11.46875 
Q 35.296875 5.375 36.625 3.859375 
Q 38.484375 1.8125 42.328125 1.8125 
L 44.625 1.8125 
L 44.625 0 
L 16.546875 0 
L 16.546875 1.8125 
L 18.890625 1.8125 
Q 23.09375 1.8125 24.859375 4.34375 
Q 25.921875 5.90625 25.921875 11.46875 
L 25.921875 62.0625 
L 17.96875 62.0625 
Q 13.328125 62.0625 11.375 61.375 
Q 8.84375 60.453125 7.03125 57.8125 
Q 5.21875 55.171875 4.890625 50.6875 
L 3.03125 50.6875 
L 3.8125 66.21875 
z
" id="TimesNewRomanPSMT-84"/>
      <path d="M 10.640625 27.875 
Q 10.59375 17.921875 15.484375 12.25 
Q 20.359375 6.59375 26.953125 6.59375 
Q 31.34375 6.59375 34.59375 9 
Q 37.84375 11.421875 40.046875 17.28125 
L 41.546875 16.3125 
Q 40.53125 9.625 35.59375 4.125 
Q 30.671875 -1.375 23.25 -1.375 
Q 15.1875 -1.375 9.453125 4.90625 
Q 3.71875 11.1875 3.71875 21.78125 
Q 3.71875 33.25 9.59375 39.671875 
Q 15.484375 46.09375 24.359375 46.09375 
Q 31.890625 46.09375 36.71875 41.140625 
Q 41.546875 36.1875 41.546875 27.875 
z
M 10.640625 30.71875 
L 31.34375 30.71875 
Q 31.109375 35.015625 30.328125 36.765625 
Q 29.109375 39.5 26.6875 41.0625 
Q 24.265625 42.625 21.625 42.625 
Q 17.578125 42.625 14.375 39.46875 
Q 11.1875 36.328125 10.640625 30.71875 
z
" id="TimesNewRomanPSMT-101"/>
      <path d="M 28.46875 6.453125 
Q 21.578125 1.125 19.828125 0.296875 
Q 17.1875 -0.921875 14.203125 -0.921875 
Q 9.578125 -0.921875 6.5625 2.25 
Q 3.5625 5.421875 3.5625 10.59375 
Q 3.5625 13.875 5.03125 16.265625 
Q 7.03125 19.578125 11.984375 22.5 
Q 16.9375 25.4375 28.46875 29.640625 
L 28.46875 31.390625 
Q 28.46875 38.09375 26.34375 40.578125 
Q 24.21875 43.0625 20.171875 43.0625 
Q 17.09375 43.0625 15.28125 41.40625 
Q 13.421875 39.75 13.421875 37.59375 
L 13.53125 34.765625 
Q 13.53125 32.515625 12.375 31.296875 
Q 11.234375 30.078125 9.375 30.078125 
Q 7.5625 30.078125 6.421875 31.34375 
Q 5.28125 32.625 5.28125 34.8125 
Q 5.28125 39.015625 9.578125 42.53125 
Q 13.875 46.046875 21.625 46.046875 
Q 27.59375 46.046875 31.390625 44.046875 
Q 34.28125 42.53125 35.640625 39.3125 
Q 36.53125 37.203125 36.53125 30.71875 
L 36.53125 15.53125 
Q 36.53125 9.125 36.765625 7.6875 
Q 37.015625 6.25 37.578125 5.765625 
Q 38.140625 5.28125 38.875 5.28125 
Q 39.65625 5.28125 40.234375 5.609375 
Q 41.265625 6.25 44.1875 9.1875 
L 44.1875 6.453125 
Q 38.71875 -0.875 33.734375 -0.875 
Q 31.34375 -0.875 29.921875 0.78125 
Q 28.515625 2.4375 28.46875 6.453125 
z
M 28.46875 9.625 
L 28.46875 26.65625 
Q 21.09375 23.734375 18.953125 22.515625 
Q 15.09375 20.359375 13.421875 18.015625 
Q 11.765625 15.671875 11.765625 12.890625 
Q 11.765625 9.375 13.859375 7.046875 
Q 15.96875 4.734375 18.703125 4.734375 
Q 22.40625 4.734375 28.46875 9.625 
z
" id="TimesNewRomanPSMT-97"/>
      <path d="M 41.109375 17 
Q 39.3125 8.15625 34.03125 3.390625 
Q 28.765625 -1.375 22.359375 -1.375 
Q 14.75 -1.375 9.078125 5.015625 
Q 3.421875 11.421875 3.421875 22.3125 
Q 3.421875 32.859375 9.6875 39.453125 
Q 15.96875 46.046875 24.75 46.046875 
Q 31.34375 46.046875 35.59375 42.546875 
Q 39.84375 39.0625 39.84375 35.296875 
Q 39.84375 33.453125 38.640625 32.296875 
Q 37.453125 31.15625 35.296875 31.15625 
Q 32.421875 31.15625 30.953125 33.015625 
Q 30.125 34.03125 29.859375 36.90625 
Q 29.59375 39.796875 27.875 41.3125 
Q 26.171875 42.78125 23.140625 42.78125 
Q 18.265625 42.78125 15.28125 39.15625 
Q 11.328125 34.375 11.328125 26.515625 
Q 11.328125 18.5 15.25 12.375 
Q 19.1875 6.25 25.875 6.25 
Q 30.671875 6.25 34.46875 9.515625 
Q 37.15625 11.765625 39.703125 17.671875 
z
" id="TimesNewRomanPSMT-99"/>
      <path d="M 16.265625 69.4375 
L 16.265625 36.71875 
Q 21.6875 42.671875 24.859375 44.359375 
Q 28.03125 46.046875 31.203125 46.046875 
Q 35.015625 46.046875 37.75 43.9375 
Q 40.484375 41.84375 41.796875 37.359375 
Q 42.71875 34.234375 42.71875 25.921875 
L 42.71875 10.109375 
Q 42.71875 5.859375 43.40625 4.296875 
Q 43.890625 3.125 45.0625 2.4375 
Q 46.234375 1.765625 49.359375 1.765625 
L 49.359375 0 
L 27.390625 0 
L 27.390625 1.765625 
L 28.421875 1.765625 
Q 31.546875 1.765625 32.765625 2.703125 
Q 33.984375 3.65625 34.46875 5.515625 
Q 34.625 6.296875 34.625 10.109375 
L 34.625 25.921875 
Q 34.625 33.25 33.859375 35.546875 
Q 33.109375 37.84375 31.4375 38.984375 
Q 29.78125 40.140625 27.4375 40.140625 
Q 25.046875 40.140625 22.453125 38.859375 
Q 19.875 37.59375 16.265625 33.734375 
L 16.265625 10.109375 
Q 16.265625 5.515625 16.765625 4.390625 
Q 17.28125 3.265625 18.671875 2.515625 
Q 20.0625 1.765625 23.484375 1.765625 
L 23.484375 0 
L 1.3125 0 
L 1.3125 1.765625 
Q 4.296875 1.765625 6 2.6875 
Q 6.984375 3.171875 7.5625 4.53125 
Q 8.15625 5.90625 8.15625 10.109375 
L 8.15625 50.59375 
Q 8.15625 58.25 7.78125 60 
Q 7.421875 61.765625 6.65625 62.390625 
Q 5.90625 63.03125 4.640625 63.03125 
Q 3.609375 63.03125 1.3125 62.25 
L 0.640625 63.96875 
L 14.015625 69.4375 
z
" id="TimesNewRomanPSMT-104"/>
      <path d="M 16.21875 46.046875 
L 16.21875 35.984375 
Q 21.828125 46.046875 27.734375 46.046875 
Q 30.421875 46.046875 32.171875 44.40625 
Q 33.9375 42.78125 33.9375 40.625 
Q 33.9375 38.71875 32.65625 37.390625 
Q 31.390625 36.078125 29.640625 36.078125 
Q 27.9375 36.078125 25.8125 37.765625 
Q 23.6875 39.453125 22.65625 39.453125 
Q 21.78125 39.453125 20.75 38.484375 
Q 18.5625 36.46875 16.21875 31.890625 
L 16.21875 10.453125 
Q 16.21875 6.734375 17.140625 4.828125 
Q 17.78125 3.515625 19.390625 2.640625 
Q 21 1.765625 24.03125 1.765625 
L 24.03125 0 
L 1.125 0 
L 1.125 1.765625 
Q 4.546875 1.765625 6.203125 2.828125 
Q 7.421875 3.609375 7.90625 5.328125 
Q 8.15625 6.15625 8.15625 10.0625 
L 8.15625 27.390625 
Q 8.15625 35.203125 7.828125 36.6875 
Q 7.515625 38.1875 6.65625 38.859375 
Q 5.8125 39.546875 4.546875 39.546875 
Q 3.03125 39.546875 1.125 38.8125 
L 0.640625 40.578125 
L 14.15625 46.046875 
z
" id="TimesNewRomanPSMT-114"/>
     </defs>
     <g transform="translate(442.6 40.732838)scale(0.18 -0.18)">
      <use xlink:href="#TimesNewRomanPSMT-84"/>
      <use x="60.974609" xlink:href="#TimesNewRomanPSMT-101"/>
      <use x="105.359375" xlink:href="#TimesNewRomanPSMT-97"/>
      <use x="149.744141" xlink:href="#TimesNewRomanPSMT-99"/>
      <use x="194.128906" xlink:href="#TimesNewRomanPSMT-104"/>
      <use x="244.128906" xlink:href="#TimesNewRomanPSMT-101"/>
      <use x="288.513672" xlink:href="#TimesNewRomanPSMT-114"/>
     </g>
    </g>
    <g id="line2d_19">
     <path d="M 392.2 59.883151 
L 428.2 59.883151 
" style="fill:none;stroke:#ff7f0e;stroke-linecap:square;stroke-width:1.5;"/>
    </g>
    <g id="line2d_20"/>
    <g id="text_11">
     <!-- θ = 0.05 -->
     <defs>
      <path d="M 24.421875 69.34375 
Q 32.671875 69.34375 38.328125 59.6875 
Q 44 50.046875 44 34.578125 
Q 44 17.875 37.890625 8.25 
Q 31.78125 -1.375 23.78125 -1.375 
Q 15.921875 -1.375 9.9375 7.96875 
Q 3.953125 17.328125 3.953125 33.34375 
Q 3.953125 49.421875 9.890625 59.375 
Q 15.828125 69.34375 24.421875 69.34375 
z
M 34.90625 35.640625 
Q 34.90625 66.5 24.078125 66.5 
Q 12.9375 66.5 12.9375 35.640625 
z
M 12.9375 32.625 
Q 12.9375 16.65625 15.90625 9.0625 
Q 18.890625 1.46875 23.921875 1.46875 
Q 34.8125 1.46875 34.90625 32.625 
z
" id="TimesNewRomanPSMT-952"/>
      <path id="TimesNewRomanPSMT-32"/>
      <path d="M 1.8125 43.109375 
L 54.5 43.109375 
L 54.5 39.109375 
L 1.8125 39.109375 
z
M 1.8125 27.203125 
L 54.5 27.203125 
L 54.5 23.1875 
L 1.8125 23.1875 
z
" id="TimesNewRomanPSMT-61"/>
      <path d="M 12.5 9.46875 
Q 14.796875 9.46875 16.359375 7.875 
Q 17.921875 6.296875 17.921875 4.046875 
Q 17.921875 1.8125 16.328125 0.21875 
Q 14.75 -1.375 12.5 -1.375 
Q 10.25 -1.375 8.65625 0.21875 
Q 7.078125 1.8125 7.078125 4.046875 
Q 7.078125 6.34375 8.65625 7.90625 
Q 10.25 9.46875 12.5 9.46875 
z
" id="TimesNewRomanPSMT-46"/>
     </defs>
     <g transform="translate(442.6 66.183151)scale(0.18 -0.18)">
      <use xlink:href="#TimesNewRomanPSMT-952"/>
      <use x="47.900391" xlink:href="#TimesNewRomanPSMT-32"/>
      <use x="72.900391" xlink:href="#TimesNewRomanPSMT-61"/>
      <use x="129.296875" xlink:href="#TimesNewRomanPSMT-32"/>
      <use x="154.296875" xlink:href="#TimesNewRomanPSMT-48"/>
      <use x="204.296875" xlink:href="#TimesNewRomanPSMT-46"/>
      <use x="229.296875" xlink:href="#TimesNewRomanPSMT-48"/>
      <use x="279.296875" xlink:href="#TimesNewRomanPSMT-53"/>
     </g>
    </g>
    <g id="line2d_21">
     <path d="M 392.2 85.333463 
L 428.2 85.333463 
" style="fill:none;stroke:#2ca02c;stroke-linecap:square;stroke-width:1.5;"/>
    </g>
    <g id="line2d_22"/>
    <g id="text_12">
     <!-- θ = 0.11 -->
     <g transform="translate(442.6 91.633463)scale(0.18 -0.18)">
      <use xlink:href="#TimesNewRomanPSMT-952"/>
      <use x="47.900391" xlink:href="#TimesNewRomanPSMT-32"/>
      <use x="72.900391" xlink:href="#TimesNewRomanPSMT-61"/>
      <use x="129.296875" xlink:href="#TimesNewRomanPSMT-32"/>
      <use x="154.296875" xlink:href="#TimesNewRomanPSMT-48"/>
      <use x="204.296875" xlink:href="#TimesNewRomanPSMT-46"/>
      <use x="229.296875" xlink:href="#TimesNewRomanPSMT-49"/>
      <use x="279.25" xlink:href="#TimesNewRomanPSMT-49"/>
     </g>
    </g>
    <g id="line2d_23">
     <path d="M 392.2 110.783776 
L 428.2 110.783776 
" style="fill:none;stroke:#d62728;stroke-linecap:square;stroke-width:1.5;"/>
    </g>
    <g id="line2d_24"/>
    <g id="text_13">
     <!-- θ = 0.12 -->
     <g transform="translate(442.6 117.083776)scale(0.18 -0.18)">
      <use xlink:href="#TimesNewRomanPSMT-952"/>
      <use x="47.900391" xlink:href="#TimesNewRomanPSMT-32"/>
      <use x="72.900391" xlink:href="#TimesNewRomanPSMT-61"/>
      <use x="129.296875" xlink:href="#TimesNewRomanPSMT-32"/>
      <use x="154.296875" xlink:href="#TimesNewRomanPSMT-48"/>
      <use x="204.296875" xlink:href="#TimesNewRomanPSMT-46"/>
      <use x="229.296875" xlink:href="#TimesNewRomanPSMT-49"/>
      <use x="279.296875" xlink:href="#TimesNewRomanPSMT-50"/>
     </g>
    </g>
    <g id="line2d_25">
     <path d="M 392.2 136.234088 
L 428.2 136.234088 
" style="fill:none;stroke:#9467bd;stroke-linecap:square;stroke-width:1.5;"/>
    </g>
    <g id="line2d_26"/>
    <g id="text_14">
     <!-- θ = 0.13 -->
     <g transform="translate(442.6 142.534088)scale(0.18 -0.18)">
      <use xlink:href="#TimesNewRomanPSMT-952"/>
      <use x="47.900391" xlink:href="#TimesNewRomanPSMT-32"/>
      <use x="72.900391" xlink:href="#TimesNewRomanPSMT-61"/>
      <use x="129.296875" xlink:href="#TimesNewRomanPSMT-32"/>
      <use x="154.296875" xlink:href="#TimesNewRomanPSMT-48"/>
      <use x="204.296875" xlink:href="#TimesNewRomanPSMT-46"/>
      <use x="229.296875" xlink:href="#TimesNewRomanPSMT-49"/>
      <use x="279.296875" xlink:href="#TimesNewRomanPSMT-51"/>
     </g>
    </g>
    <g id="line2d_27">
     <path d="M 392.2 161.684401 
L 428.2 161.684401 
" style="fill:none;stroke:#8c564b;stroke-linecap:square;stroke-width:1.5;"/>
    </g>
    <g id="line2d_28"/>
    <g id="text_15">
     <!-- θ = 0.14 -->
     <defs>
      <path d="M 46.53125 24.421875 
L 46.53125 17.484375 
L 37.640625 17.484375 
L 37.640625 0 
L 29.59375 0 
L 29.59375 17.484375 
L 1.5625 17.484375 
L 1.5625 23.734375 
L 32.28125 67.578125 
L 37.640625 67.578125 
L 37.640625 24.421875 
z
M 29.59375 24.421875 
L 29.59375 57.28125 
L 6.34375 24.421875 
z
" id="TimesNewRomanPSMT-52"/>
     </defs>
     <g transform="translate(442.6 167.984401)scale(0.18 -0.18)">
      <use xlink:href="#TimesNewRomanPSMT-952"/>
      <use x="47.900391" xlink:href="#TimesNewRomanPSMT-32"/>
      <use x="72.900391" xlink:href="#TimesNewRomanPSMT-61"/>
      <use x="129.296875" xlink:href="#TimesNewRomanPSMT-32"/>
      <use x="154.296875" xlink:href="#TimesNewRomanPSMT-48"/>
      <use x="204.296875" xlink:href="#TimesNewRomanPSMT-46"/>
      <use x="229.296875" xlink:href="#TimesNewRomanPSMT-49"/>
      <use x="279.296875" xlink:href="#TimesNewRomanPSMT-52"/>
     </g>
    </g>
    <g id="line2d_29">
     <path d="M 392.2 187.134713 
L 428.2 187.134713 
" style="fill:none;stroke:#e377c2;stroke-linecap:square;stroke-width:1.5;"/>
    </g>
    <g id="line2d_30"/>
    <g id="text_16">
     <!-- θ = 0.15 -->
     <g transform="translate(442.6 193.434713)scale(0.18 -0.18)">
      <use xlink:href="#TimesNewRomanPSMT-952"/>
      <use x="47.900391" xlink:href="#TimesNewRomanPSMT-32"/>
      <use x="72.900391" xlink:href="#TimesNewRomanPSMT-61"/>
      <use x="129.296875" xlink:href="#TimesNewRomanPSMT-32"/>
      <use x="154.296875" xlink:href="#TimesNewRomanPSMT-48"/>
      <use x="204.296875" xlink:href="#TimesNewRomanPSMT-46"/>
      <use x="229.296875" xlink:href="#TimesNewRomanPSMT-49"/>
      <use x="279.296875" xlink:href="#TimesNewRomanPSMT-53"/>
     </g>
    </g>
   </g>
  </g>
 </g>
 <defs>
  <clipPath id="peed0779c08">
   <rect height="217.44" width="334.8" x="41.2" y="11.932838"/>
  </clipPath>
 </defs>
</svg>
