<svg width="872" height="605" xmlns="http://www.w3.org/2000/svg" xmlns:xlink="http://www.w3.org/1999/xlink" overflow="hidden"><defs><clipPath id="clip0"><rect x="171" y="41" width="872" height="605"/></clipPath></defs><g clip-path="url(#clip0)" transform="translate(-171 -41)"><rect x="332.5" y="502.5" width="79" height="107" stroke="#2F528F" stroke-width="1.33333" stroke-miterlimit="8" fill="#4472C4"/><text fill="#FFFFFF" font-family="DengXian,DengXian_MSFontService,sans-serif" font-weight="400" font-size="24" transform="translate(344.917 563)">Conv</text><rect x="428.5" y="500.5" width="18" height="109" stroke="#BC8C00" stroke-width="1.33333" stroke-miterlimit="8" fill="#FFC000"/><path d="M0.0214932-0.33264 10.1451 0.321486 10.1021 0.986765-0.0214932 0.33264ZM9.05094-3.42352 16.7764 1.08399 8.53511 4.55983Z" transform="matrix(1 0 0 -1 411.5 555.584)"/><path d="M288.5 555.167 325.639 555.167 325.639 555.833 288.5 555.833ZM324.306 551.5 332.306 555.5 324.306 559.5Z"/><path d="M446.5 554.167 463.134 554.167 463.134 554.833 446.5 554.833ZM461.801 550.5 469.801 554.5 461.801 558.5Z"/><rect x="469.5" y="504.5" width="79" height="107" stroke="#2F528F" stroke-width="1.33333" stroke-miterlimit="8" fill="#4472C4"/><text fill="#FFFFFF" font-family="DengXian,DengXian_MSFontService,sans-serif" font-weight="400" font-size="24" transform="translate(481.927 565)">Conv</text><rect x="565.5" y="502.5" width="18" height="109" stroke="#BC8C00" stroke-width="1.33333" stroke-miterlimit="8" fill="#FFC000"/><path d="M0.0214932-0.33264 10.1451 0.321486 10.1021 0.986765-0.0214932 0.33264ZM9.05094-3.42352 16.7764 1.08399 8.53511 4.55983Z" transform="matrix(1 0 0 -1 548.5 557.584)"/><path d="M583.529 556.168 589.264 556.67 589.206 557.334 583.471 556.832ZM588.256 552.901 595.876 557.584 587.557 560.871Z"/><rect x="594.5" y="504.5" width="161" height="107" stroke="#2F528F" stroke-width="1.33333" stroke-miterlimit="8" fill="#4472C4"/><text fill="#FFFFFF" font-family="DengXian,DengXian_MSFontService,sans-serif" font-weight="400" font-size="24" transform="translate(647.96 565)">Conv</text><rect x="772.5" y="502.5" width="17" height="109" stroke="#BC8C00" stroke-width="1.33333" stroke-miterlimit="8" fill="#FFC000"/><path d="M0.0214953-0.33264 10.1451 0.32155 10.1021 0.986829-0.0214953 0.33264ZM9.05097-3.42347 16.7764 1.08409 8.53509 4.55988Z" transform="matrix(1 0 0 -1 755.5 557.584)"/><path d="M789.5 556.167 806.135 556.167 806.135 556.833 789.5 556.833ZM804.801 552.5 812.801 556.5 804.801 560.5Z"/><rect x="813.5" y="504.5" width="79" height="107" stroke="#2F528F" stroke-width="1.33333" stroke-miterlimit="8" fill="#4472C4"/><text fill="#FFFFFF" font-family="DengXian,DengXian_MSFontService,sans-serif" font-weight="400" font-size="24" transform="translate(825.849 565)">Conv</text><rect x="909.5" y="502.5" width="17" height="109" stroke="#BC8C00" stroke-width="1.33333" stroke-miterlimit="8" fill="#FFC000"/><path d="M0.0214932-0.33264 10.1451 0.321486 10.1021 0.986765-0.0214932 0.33264ZM9.05094-3.42352 16.7764 1.08399 8.53511 4.55983Z" transform="matrix(1 0 0 -1 892.5 557.584)"/><path d="M926.5 556.167 943.135 556.167 943.135 556.833 926.5 556.833ZM941.801 552.5 949.801 556.5 941.801 560.5Z"/><rect x="950.5" y="500.5" width="60" height="106" stroke="#2F528F" stroke-width="1.33333" stroke-miterlimit="8" fill="#4472C4"/><text fill="#FFFFFF" font-family="DengXian,DengXian_MSFontService,sans-serif" font-weight="400" font-size="24" transform="translate(962.121 561)">1x1</text><path d="M1010.5 555.167 1027.13 555.167 1027.13 555.833 1010.5 555.833ZM1025.8 551.5 1033.8 555.5 1025.8 559.5Z"/><rect x="331.5" y="345.5" width="79" height="106" stroke="#2F528F" stroke-width="1.33333" stroke-miterlimit="8" fill="#4472C4"/><text fill="#FFFFFF" font-family="DengXian,DengXian_MSFontService,sans-serif" font-weight="400" font-size="24" transform="translate(343.985 406)">Conv</text><rect x="427.5" y="343.5" width="18" height="108" stroke="#BC8C00" stroke-width="1.33333" stroke-miterlimit="8" fill="#FFC000"/><path d="M0.0214932-0.33264 10.1451 0.321486 10.1021 0.986765-0.0214932 0.33264ZM9.05094-3.42352 16.7764 1.08399 8.53511 4.55983Z" transform="matrix(1 0 0 -1 410.5 398.584)"/><path d="M287.5 398.167 324.639 398.167 324.639 398.833 287.5 398.833ZM323.306 394.5 331.306 398.5 323.306 402.5Z"/><path d="M445.5 397.167 462.134 397.167 462.134 397.833 445.5 397.833ZM460.801 393.5 468.801 397.5 460.801 401.5Z"/><rect x="468.5" y="347.5" width="79" height="106" stroke="#2F528F" stroke-width="1.33333" stroke-miterlimit="8" fill="#4472C4"/><text fill="#FFFFFF" font-family="DengXian,DengXian_MSFontService,sans-serif" font-weight="400" font-size="24" transform="translate(480.995 408)">Conv</text><rect x="564.5" y="345.5" width="18" height="108" stroke="#BC8C00" stroke-width="1.33333" stroke-miterlimit="8" fill="#FFC000"/><path d="M0.0214932-0.33264 10.1451 0.321486 10.1021 0.986765-0.0214932 0.33264ZM9.05094-3.42352 16.7764 1.08399 8.53511 4.55983Z" transform="matrix(1 0 0 -1 547.5 400.584)"/><path d="M582.529 399.168 588.264 399.67 588.206 400.334 582.471 399.832ZM587.256 395.901 594.876 400.584 586.557 403.871Z"/><rect x="675.5" y="347.5" width="79" height="106" stroke="#2F528F" stroke-width="1.33333" stroke-miterlimit="8" fill="#4472C4"/><text fill="#FFFFFF" font-family="DengXian,DengXian_MSFontService,sans-serif" font-weight="400" font-size="24" transform="translate(687.908 408)">Conv</text><rect x="771.5" y="345.5" width="18" height="108" stroke="#BC8C00" stroke-width="1.33333" stroke-miterlimit="8" fill="#FFC000"/><path d="M0.0214953-0.33264 10.1451 0.32155 10.1021 0.986829-0.0214953 0.33264ZM9.05097-3.42347 16.7764 1.08409 8.53509 4.55988Z" transform="matrix(1 0 0 -1 754.5 400.584)"/><path d="M655.5 400.167 669.078 400.167 669.078 400.833 655.5 400.833ZM667.745 396.5 675.745 400.5 667.745 404.5Z"/><path d="M789.5 399.167 806.135 399.167 806.135 399.833 789.5 399.833ZM804.801 395.5 812.801 399.5 804.801 403.5Z"/><rect x="812.5" y="347.5" width="79" height="106" stroke="#2F528F" stroke-width="1.33333" stroke-miterlimit="8" fill="#4472C4"/><text fill="#FFFFFF" font-family="DengXian,DengXian_MSFontService,sans-serif" font-weight="400" font-size="24" transform="translate(824.917 408)">Conv</text><rect x="908.5" y="345.5" width="18" height="108" stroke="#BC8C00" stroke-width="1.33333" stroke-miterlimit="8" fill="#FFC000"/><path d="M0.0214932-0.33264 10.1451 0.321486 10.1021 0.986765-0.0214932 0.33264ZM9.05094-3.42352 16.7764 1.08399 8.53511 4.55983Z" transform="matrix(1 0 0 -1 891.5 400.584)"/><path d="M926.5 399.167 943.135 399.167 943.135 399.833 926.5 399.833ZM941.801 395.5 949.801 399.5 941.801 403.5Z"/><rect x="594.5" y="347.5" width="61" height="106" stroke="#2F528F" stroke-width="1.33333" stroke-miterlimit="8" fill="#4472C4"/><text fill="#FFFFFF" font-family="DengXian,DengXian_MSFontService,sans-serif" font-weight="400" font-size="24" transform="translate(606.343 408)">1x1</text><rect x="949.5" y="343.5" width="60" height="106" stroke="#2F528F" stroke-width="1.33333" stroke-miterlimit="8" fill="#4472C4"/><text fill="#FFFFFF" font-family="DengXian,DengXian_MSFontService,sans-serif" font-weight="400" font-size="24" transform="translate(961.189 403)">1x1</text><path d="M1009.5 397.167 1026.13 397.167 1026.13 397.833 1009.5 397.833ZM1024.8 393.5 1032.8 397.5 1024.8 401.5Z"/><rect x="331.5" y="102.5" width="79" height="45" stroke="#2F528F" stroke-width="1.33333" stroke-miterlimit="8" fill="#4472C4"/><text fill="#FFFFFF" font-family="DengXian,DengXian_MSFontService,sans-serif" font-weight="400" font-size="24" transform="translate(343.985 132)">Conv</text><rect x="427.5" y="101.5" width="18" height="46" stroke="#BC8C00" stroke-width="1.33333" stroke-miterlimit="8" fill="#FFC000"/><path d="M0.00925621-0.333205 10.1215-0.0522923 10.103 0.614117-0.00925621 0.333205ZM8.89054-3.75457 16.7764 0.466037 8.66839 4.24235Z" transform="matrix(1 0 0 -1 410.5 124.966)"/><path d="M287.5 124.167 324.639 124.167 324.639 124.833 287.5 124.833ZM323.306 120.5 331.306 124.5 323.306 128.5Z"/><path d="M445.5 124.167 462.134 124.167 462.134 124.833 445.5 124.833ZM460.801 120.5 468.801 124.5 460.801 128.5Z"/><rect x="468.5" y="103.5" width="79" height="45" stroke="#2F528F" stroke-width="1.33333" stroke-miterlimit="8" fill="#4472C4"/><text fill="#FFFFFF" font-family="DengXian,DengXian_MSFontService,sans-serif" font-weight="400" font-size="24" transform="translate(480.995 133)">Conv</text><rect x="564.5" y="102.5" width="18" height="46" stroke="#BC8C00" stroke-width="1.33333" stroke-miterlimit="8" fill="#FFC000"/><path d="M0.00925621-0.333205 10.1215-0.0522923 10.103 0.614117-0.00925621 0.333205ZM8.89054-3.75457 16.7764 0.466037 8.66839 4.24235Z" transform="matrix(1 0 0 -1 547.5 125.966)"/><path d="M0.0128116-0.333087 17.5838 0.342753 17.5582 1.00893-0.0128116 0.333087ZM16.3924-3.37245 24.2328 0.932073 16.0849 4.62164Z" transform="matrix(1 0 0 -1 582.5 125.432)"/><path d="M0 0 0.000104987 42.8737" stroke="#000000" stroke-width="0.666667" stroke-miterlimit="8" fill="none" fill-rule="evenodd" transform="matrix(1 0 0 -1 300.5 124.374)"/><path d="M300.5 81.5001 618.792 81.5002" stroke="#000000" stroke-width="0.666667" stroke-miterlimit="8" fill="none" fill-rule="evenodd"/><path d="M619.833 80.5001 619.833 104.591 619.167 104.591 619.167 80.5001ZM623.5 103.257 619.5 111.257 615.5 103.257Z"/><path d="M606.5 124.5C606.5 117.32 612.32 111.5 619.5 111.5 626.68 111.5 632.5 117.32 632.5 124.5 632.5 131.68 626.68 137.5 619.5 137.5 612.32 137.5 606.5 131.68 606.5 124.5Z" fill="#4472C4" fill-rule="evenodd"/><path d="M619.5 111.5 619.5 137.5M606.5 124.5 632.5 124.5" stroke="#2F528F" stroke-width="1.33333" stroke-miterlimit="8" fill="none" fill-rule="evenodd"/><path d="M606.5 124.5C606.5 117.32 612.32 111.5 619.5 111.5 626.68 111.5 632.5 117.32 632.5 124.5 632.5 131.68 626.68 137.5 619.5 137.5 612.32 137.5 606.5 131.68 606.5 124.5Z" stroke="#2F528F" stroke-width="1.33333" stroke-miterlimit="8" fill="none" fill-rule="evenodd"/><rect x="675.5" y="102.5" width="79" height="45" stroke="#2F528F" stroke-width="1.33333" stroke-miterlimit="8" fill="#4472C4"/><text fill="#FFFFFF" font-family="DengXian,DengXian_MSFontService,sans-serif" font-weight="400" font-size="24" transform="translate(687.908 132)">Conv</text><rect x="771.5" y="101.5" width="18" height="46" stroke="#BC8C00" stroke-width="1.33333" stroke-miterlimit="8" fill="#FFC000"/><path d="M0.00925621-0.333205 10.1215-0.0522923 10.103 0.614117-0.00925621 0.333205ZM8.89054-3.75457 16.7764 0.466037 8.66839 4.24235Z" transform="matrix(1 0 0 -1 754.5 124.966)"/><path d="M631.5 124.167 668.639 124.167 668.639 124.833 631.5 124.833ZM667.306 120.5 675.306 124.5 667.306 128.5Z"/><path d="M789.5 124.167 806.135 124.167 806.135 124.833 789.5 124.833ZM804.801 120.5 812.801 124.5 804.801 128.5Z"/><rect x="812.5" y="103.5" width="79" height="45" stroke="#2F528F" stroke-width="1.33333" stroke-miterlimit="8" fill="#4472C4"/><text fill="#FFFFFF" font-family="DengXian,DengXian_MSFontService,sans-serif" font-weight="400" font-size="24" transform="translate(824.917 133)">Conv</text><rect x="908.5" y="102.5" width="18" height="46" stroke="#BC8C00" stroke-width="1.33333" stroke-miterlimit="8" fill="#FFC000"/><path d="M0.00925621-0.333205 10.1215-0.0522923 10.103 0.614117-0.00925621 0.333205ZM8.89054-3.75457 16.7764 0.466037 8.66839 4.24235Z" transform="matrix(1 0 0 -1 891.5 125.966)"/><path d="M926.5 125.167 943.135 125.167 943.135 125.833 926.5 125.833ZM941.801 121.5 949.801 125.5 941.801 129.5Z"/><path d="M0 0 0.000104987 42.8737" stroke="#000000" stroke-width="0.666667" stroke-miterlimit="8" fill="none" fill-rule="evenodd" transform="matrix(1 0 0 -1 644.5 124.374)"/><path d="M644.5 81.5001 962.792 81.5002" stroke="#000000" stroke-width="0.666667" stroke-miterlimit="8" fill="none" fill-rule="evenodd"/><path d="M962.833 81.5001 962.833 105.591 962.167 105.591 962.167 81.5001ZM966.5 104.257 962.5 112.257 958.5 104.257Z"/><path d="M949.5 125.5C949.5 118.32 955.32 112.5 962.5 112.5 969.68 112.5 975.5 118.32 975.5 125.5 975.5 132.68 969.68 138.5 962.5 138.5 955.32 138.5 949.5 132.68 949.5 125.5Z" fill="#4472C4" fill-rule="evenodd"/><path d="M962.5 112.5 962.5 138.5M949.5 125.5 975.5 125.5" stroke="#2F528F" stroke-width="1.33333" stroke-miterlimit="8" fill="none" fill-rule="evenodd"/><path d="M949.5 125.5C949.5 118.32 955.32 112.5 962.5 112.5 969.68 112.5 975.5 118.32 975.5 125.5 975.5 132.68 969.68 138.5 962.5 138.5 955.32 138.5 949.5 132.68 949.5 125.5Z" stroke="#2F528F" stroke-width="1.33333" stroke-miterlimit="8" fill="none" fill-rule="evenodd"/><path d="M975.5 125.167 992.135 125.167 992.135 125.833 975.5 125.833ZM990.801 121.5 998.801 125.5 990.801 129.5Z"/><rect x="331.5" y="256.5" width="79" height="45" stroke="#2F528F" stroke-width="1.33333" stroke-miterlimit="8" fill="#4472C4"/><text fill="#FFFFFF" font-family="DengXian,DengXian_MSFontService,sans-serif" font-weight="400" font-size="24" transform="translate(343.985 286)">Conv</text><rect x="427.5" y="255.5" width="18" height="46" stroke="#BC8C00" stroke-width="1.33333" stroke-miterlimit="8" fill="#FFC000"/><path d="M0.00925621-0.333205 10.1215-0.0522923 10.103 0.614117-0.00925621 0.333205ZM8.89054-3.75457 16.7764 0.466037 8.66839 4.24235Z" transform="matrix(1 0 0 -1 410.5 278.966)"/><path d="M287.5 278.167 324.639 278.167 324.639 278.833 287.5 278.833ZM323.306 274.5 331.306 278.5 323.306 282.5Z"/><path d="M445.5 278.167 462.134 278.167 462.134 278.833 445.5 278.833ZM460.801 274.5 468.801 278.5 460.801 282.5Z"/><rect x="468.5" y="256.5" width="79" height="46" stroke="#2F528F" stroke-width="1.33333" stroke-miterlimit="8" fill="#4472C4"/><text fill="#FFFFFF" font-family="DengXian,DengXian_MSFontService,sans-serif" font-weight="400" font-size="24" transform="translate(480.995 287)">Conv</text><rect x="564.5" y="256.5" width="18" height="46" stroke="#BC8C00" stroke-width="1.33333" stroke-miterlimit="8" fill="#FFC000"/><path d="M0.00925621-0.333205 10.1215-0.0522923 10.103 0.614117-0.00925621 0.333205ZM8.89054-3.75457 16.7764 0.466037 8.66839 4.24235Z" transform="matrix(1 0 0 -1 547.5 279.966)"/><path d="M582.513 279.167 588.227 279.382 588.202 280.048 582.487 279.833ZM587.032 275.668 594.876 279.966 586.731 283.662Z"/><path d="M0 0 0.000104987 53.1262" stroke="#000000" stroke-width="0.666667" stroke-miterlimit="8" fill="none" fill-rule="evenodd" transform="matrix(1 0 0 -1 300.5 278.626)"/><path d="M624.833 225.5 624.833 250.523 624.167 250.523 624.167 225.5ZM628.5 249.189 624.5 257.189 620.5 249.189Z"/><rect x="675.5" y="256.5" width="79" height="45" stroke="#2F528F" stroke-width="1.33333" stroke-miterlimit="8" fill="#4472C4"/><text fill="#FFFFFF" font-family="DengXian,DengXian_MSFontService,sans-serif" font-weight="400" font-size="24" transform="translate(687.908 286)">Conv</text><rect x="771.5" y="255.5" width="18" height="46" stroke="#BC8C00" stroke-width="1.33333" stroke-miterlimit="8" fill="#FFC000"/><path d="M0.00925621-0.333205 10.1215-0.0522923 10.103 0.614117-0.00925621 0.333205ZM8.89054-3.75457 16.7764 0.466037 8.66839 4.24235Z" transform="matrix(1 0 0 -1 754.5 278.966)"/><path d="M0.0153305-0.332981 13.6005 0.292484 13.5699 0.958445-0.0153305 0.332981ZM12.4373-3.43162 20.2448 0.932073 12.0693 4.55991Z" transform="matrix(1 0 0 -1 655.5 279.432)"/><path d="M789.5 278.167 806.135 278.167 806.135 278.833 789.5 278.833ZM804.801 274.5 812.801 278.5 804.801 282.5Z"/><rect x="812.5" y="256.5" width="79" height="46" stroke="#2F528F" stroke-width="1.33333" stroke-miterlimit="8" fill="#4472C4"/><text fill="#FFFFFF" font-family="DengXian,DengXian_MSFontService,sans-serif" font-weight="400" font-size="24" transform="translate(824.917 287)">Conv</text><rect x="908.5" y="256.5" width="18" height="46" stroke="#BC8C00" stroke-width="1.33333" stroke-miterlimit="8" fill="#FFC000"/><path d="M0.00925621-0.333205 10.1215-0.0522923 10.103 0.614117-0.00925621 0.333205ZM8.89054-3.75457 16.7764 0.466037 8.66839 4.24235Z" transform="matrix(1 0 0 -1 891.5 279.966)"/><path d="M926.5 279.167 943.135 279.167 943.135 279.833 926.5 279.833ZM941.801 275.5 949.801 279.5 941.801 283.5Z"/><path d="M300.505 225.167 324.83 225.533 324.82 226.199 300.495 225.833ZM323.552 221.846 331.491 225.966 323.431 229.845Z"/><rect x="331.5" y="202.5" width="79" height="46" stroke="#2F528F" stroke-width="1.33333" stroke-miterlimit="8" fill="#4472C4"/><text fill="#FFFFFF" font-family="DengXian,DengXian_MSFontService,sans-serif" font-weight="400" font-size="24" transform="translate(343.752 233)">Conv</text><rect x="427.5" y="201.5" width="17" height="47" stroke="#BC8C00" stroke-width="1.33333" stroke-miterlimit="8" fill="#FFC000"/><path d="M0.00925621-0.333205 10.1215-0.0522923 10.103 0.614117-0.00925621 0.333205ZM8.89054-3.75457 16.7764 0.466037 8.66839 4.24235Z" transform="matrix(1 0 0 -1 410.5 225.966)"/><path d="M444.5 225.167 461.134 225.167 461.134 225.833 444.5 225.833ZM459.801 221.5 467.801 225.5 459.801 229.5Z"/><rect x="468.5" y="203.5" width="79" height="46" stroke="#2F528F" stroke-width="1.33333" stroke-miterlimit="8" fill="#4472C4"/><text fill="#FFFFFF" font-family="DengXian,DengXian_MSFontService,sans-serif" font-weight="400" font-size="24" transform="translate(480.762 234)">Conv</text><rect x="564.5" y="202.5" width="17" height="47" stroke="#BC8C00" stroke-width="1.33333" stroke-miterlimit="8" fill="#FFC000"/><path d="M0.00925621-0.333205 10.1215-0.0522923 10.103 0.614117-0.00925621 0.333205ZM8.89054-3.75457 16.7764 0.466037 8.66839 4.24235Z" transform="matrix(1 0 0 -1 547.5 226.966)"/><text font-family="DengXian,DengXian_MSFontService,sans-serif" font-weight="700" font-size="19" transform="translate(297.805 214)">+C<tspan font-size="19" x="295.858" y="1">-</tspan><tspan font-size="19" x="305.192" y="1">C</tspan></text><rect x="594.5" y="256.5" width="61" height="46" stroke="#2F528F" stroke-width="1.33333" stroke-miterlimit="8" fill="#4472C4"/><text fill="#FFFFFF" font-family="DengXian,DengXian_MSFontService,sans-serif" font-weight="400" font-size="24" transform="translate(606.343 287)">1x1</text><path d="M979.833 226.5 979.833 248.727 979.167 248.727 979.167 226.5ZM983.5 247.394 979.5 255.394 975.5 247.394Z"/><path d="M0.150735-0.297305 1.41451 0.343433 1.11304 0.938043-0.150735 0.297305ZM1.88337-3.52986 7.20987 3.65543-1.73426 3.60546Z" transform="matrix(1 0 0 -1 668.5 229.155)"/><rect x="675.5" y="202.5" width="79" height="46" stroke="#2F528F" stroke-width="1.33333" stroke-miterlimit="8" fill="#4472C4"/><text fill="#FFFFFF" font-family="DengXian,DengXian_MSFontService,sans-serif" font-weight="400" font-size="24" transform="translate(688.374 233)">Conv</text><rect x="771.5" y="201.5" width="18" height="47" stroke="#BC8C00" stroke-width="1.33333" stroke-miterlimit="8" fill="#FFC000"/><path d="M0.00925621-0.333205 10.1215-0.0522923 10.103 0.614117-0.00925621 0.333205ZM8.89054-3.75457 16.7764 0.466037 8.66839 4.24235Z" transform="matrix(1 0 0 -1 754.5 225.966)"/><path d="M789.5 225.167 806.135 225.167 806.135 225.833 789.5 225.833ZM804.801 221.5 812.801 225.5 804.801 229.5Z"/><rect x="812.5" y="203.5" width="79" height="46" stroke="#2F528F" stroke-width="1.33333" stroke-miterlimit="8" fill="#4472C4"/><text fill="#FFFFFF" font-family="DengXian,DengXian_MSFontService,sans-serif" font-weight="400" font-size="24" transform="translate(825.384 234)">Conv</text><rect x="908.5" y="202.5" width="18" height="47" stroke="#BC8C00" stroke-width="1.33333" stroke-miterlimit="8" fill="#FFC000"/><path d="M0.00925621-0.333205 10.1215-0.0522923 10.103 0.614117-0.00925621 0.333205ZM8.89054-3.75457 16.7764 0.466037 8.66839 4.24235Z" transform="matrix(1 0 0 -1 891.5 226.966)"/><text font-family="DengXian,DengXian_MSFontService,sans-serif" font-weight="700" font-size="19" transform="translate(648.047 218)">+C<tspan font-size="19" x="289.371" y="-10">-</tspan><tspan font-size="19" x="298.704" y="-10">C</tspan></text><path d="M0 0 0.000104987 53.1262" stroke="#000000" stroke-width="0.666667" stroke-miterlimit="8" fill="none" fill-rule="evenodd" transform="matrix(1 0 0 -1 663.5 278.626)"/><rect x="949.5" y="255.5" width="60" height="45" stroke="#2F528F" stroke-width="1.33333" stroke-miterlimit="8" fill="#4472C4"/><text fill="#FFFFFF" font-family="DengXian,DengXian_MSFontService,sans-serif" font-weight="400" font-size="24" transform="translate(961.189 285)">1x1</text><path d="M0 0 42.9005 0.0407349" stroke="#000000" stroke-width="0.666667" stroke-miterlimit="8" fill="none" fill-rule="evenodd" transform="matrix(1 0 0 -1 581.5 226.541)"/><path d="M928.5 225.5 979.789 225.5" stroke="#000000" stroke-width="0.666667" stroke-miterlimit="8" fill="none" fill-rule="evenodd"/><path d="M1009.5 278.167 1026.13 278.167 1026.13 278.833 1009.5 278.833ZM1024.8 274.5 1032.8 278.5 1024.8 282.5Z"/><path d="M435.5 43.5001 435.5 633.481" stroke="#ED7D31" stroke-width="3" stroke-linejoin="round" stroke-miterlimit="10" stroke-dasharray="12 9" fill="none" fill-rule="evenodd"/><path d="M573.5 42.5001 573.5 643.667" stroke="#ED7D31" stroke-width="3" stroke-linejoin="round" stroke-miterlimit="10" stroke-dasharray="12 9" fill="none" fill-rule="evenodd"/><path d="M781.5 44.5001 781.5 643.803" stroke="#ED7D31" stroke-width="3" stroke-linejoin="round" stroke-miterlimit="10" stroke-dasharray="12 9" fill="none" fill-rule="evenodd"/><path d="M917.5 42.5001 917.5 643.667" stroke="#ED7D31" stroke-width="3" stroke-linejoin="round" stroke-miterlimit="10" stroke-dasharray="12 9" fill="none" fill-rule="evenodd"/><text font-family="DengXian,DengXian_MSFontService,sans-serif" font-weight="700" font-size="24" transform="translate(185.786 183)">Step1<tspan font-size="24" x="0.176056" y="143">Step2</tspan><tspan font-size="24" x="0" y="295">Step3</tspan></text></g></svg>