<svg width="514" height="454" xmlns="http://www.w3.org/2000/svg" xmlns:xlink="http://www.w3.org/1999/xlink" overflow="hidden"><defs><clipPath id="clip0"><rect x="68" y="76" width="514" height="454"/></clipPath></defs><g clip-path="url(#clip0)" transform="translate(-68 -76)"><rect x="249.5" y="98.5001" width="79" height="46" stroke="#2F528F" stroke-width="1.33333" stroke-miterlimit="8" fill="#4472C4"/><text fill="#FFFFFF" font-family="DengXian,DengXian_MSFontService,sans-serif" font-weight="400" font-size="24" transform="translate(261.966 128)">Conv</text><rect x="345.5" y="97.5001" width="18" height="47" stroke="#BC8C00" stroke-width="1.33333" stroke-miterlimit="8" fill="#FFC000"/><path d="M0.00925621-0.333205 10.1215-0.0522923 10.103 0.614117-0.00925621 0.333205ZM8.89054-3.75457 16.7764 0.466037 8.66839 4.24235Z" transform="matrix(1 0 0 -1 328.5 120.966)"/><path d="M205.5 121.167 242.639 121.167 242.639 121.833 205.5 121.833ZM241.306 117.5 249.306 121.5 241.306 125.5Z"/><path d="M363.5 120.167 380.134 120.167 380.134 120.833 363.5 120.833ZM378.801 116.5 386.801 120.5 378.801 124.5Z"/><rect x="386.5" y="99.5001" width="79" height="45" stroke="#2F528F" stroke-width="1.33333" stroke-miterlimit="8" fill="#4472C4"/><text fill="#FFFFFF" font-family="DengXian,DengXian_MSFontService,sans-serif" font-weight="400" font-size="24" transform="translate(398.976 129)">Conv</text><rect x="482.5" y="98.5001" width="18" height="46" stroke="#BC8C00" stroke-width="1.33333" stroke-miterlimit="8" fill="#FFC000"/><path d="M0.00925621-0.333205 10.1215-0.0522923 10.103 0.614117-0.00925621 0.333205ZM8.89054-3.75457 16.7764 0.466037 8.66839 4.24235Z" transform="matrix(1 0 0 -1 465.5 121.966)"/><path d="M500.5 121.167 517.135 121.167 517.135 121.833 500.5 121.833ZM515.801 117.5 523.801 121.5 515.801 125.5Z"/><path d="M0 0 0.000104987 42.8737" stroke="#000000" stroke-width="0.666667" stroke-miterlimit="8" fill="none" fill-rule="evenodd" transform="matrix(1 0 0 -1 218.5 120.374)"/><path d="M218.5 77.5001 536.792 77.5002" stroke="#000000" stroke-width="0.666667" stroke-miterlimit="8" fill="none" fill-rule="evenodd"/><path d="M536.833 77.5001 536.833 101.591 536.167 101.591 536.167 77.5001ZM540.5 100.257 536.5 108.257 532.5 100.257Z"/><path d="M523.5 121.5C523.5 114.32 529.32 108.5 536.5 108.5 543.68 108.5 549.5 114.32 549.5 121.5 549.5 128.68 543.68 134.5 536.5 134.5 529.32 134.5 523.5 128.68 523.5 121.5Z" fill="#4472C4" fill-rule="evenodd"/><path d="M536.5 108.5 536.5 134.5M523.5 121.5 549.5 121.5" stroke="#2F528F" stroke-width="1.33333" stroke-miterlimit="8" fill="none" fill-rule="evenodd"/><path d="M523.5 121.5C523.5 114.32 529.32 108.5 536.5 108.5 543.68 108.5 549.5 114.32 549.5 121.5 549.5 128.68 543.68 134.5 536.5 134.5 529.32 134.5 523.5 128.68 523.5 121.5Z" stroke="#2F528F" stroke-width="1.33333" stroke-miterlimit="8" fill="none" fill-rule="evenodd"/><path d="M549.5 121.167 566.135 121.167 566.135 121.833 549.5 121.833ZM564.801 117.5 572.801 121.5 564.801 125.5Z"/><rect x="249.5" y="224.5" width="79" height="95" stroke="#2F528F" stroke-width="1.33333" stroke-miterlimit="8" fill="#4472C4"/><text fill="#FFFFFF" font-family="DengXian,DengXian_MSFontService,sans-serif" font-weight="400" font-size="24" transform="translate(261.966 279)">Conv</text><rect x="345.5" y="222.5" width="18" height="97" stroke="#BC8C00" stroke-width="1.33333" stroke-miterlimit="8" fill="#FFC000"/><path d="M0.0192135-0.332779 10.14 0.25156 10.1016 0.917118-0.0192135 0.332779ZM9.02024-3.48586 16.7764 0.968609 8.55912 4.50083Z" transform="matrix(1 0 0 -1 328.5 271.469)"/><path d="M205.5 271.167 242.639 271.167 242.639 271.833 205.5 271.833ZM241.306 267.5 249.306 271.5 241.306 275.5Z"/><path d="M363.5 270.167 380.134 270.167 380.134 270.833 363.5 270.833ZM378.801 266.5 386.801 270.5 378.801 274.5Z"/><rect x="386.5" y="226.5" width="79" height="95" stroke="#2F528F" stroke-width="1.33333" stroke-miterlimit="8" fill="#4472C4"/><text fill="#FFFFFF" font-family="DengXian,DengXian_MSFontService,sans-serif" font-weight="400" font-size="24" transform="translate(398.976 281)">Conv</text><rect x="482.5" y="224.5" width="18" height="97" stroke="#BC8C00" stroke-width="1.33333" stroke-miterlimit="8" fill="#FFC000"/><path d="M0.0192135-0.332779 10.14 0.25156 10.1016 0.917118-0.0192135 0.332779ZM9.02024-3.48586 16.7764 0.968609 8.55912 4.50083Z" transform="matrix(1 0 0 -1 465.5 273.469)"/><path d="M500.502 272.167 566.534 272.46 566.531 273.127 500.499 272.833ZM565.217 268.787 573.199 272.823 565.182 276.787Z"/><rect x="249.5" y="407.5" width="79" height="41" stroke="#2F528F" stroke-width="1.33333" stroke-miterlimit="8" fill="#4472C4"/><text fill="#FFFFFF" font-family="DengXian,DengXian_MSFontService,sans-serif" font-weight="400" font-size="24" transform="translate(261.966 435)">Conv</text><rect x="345.5" y="406.5" width="18" height="42" stroke="#BC8C00" stroke-width="1.33333" stroke-miterlimit="8" fill="#FFC000"/><path d="M0.0083956-0.333228 10.1202-0.0784624 10.1034 0.587993-0.0083956 0.333228ZM8.87966-3.77755 16.7764 0.422677 8.67817 4.21991Z" transform="matrix(1 0 0 -1 328.5 427.923)"/><path d="M205.5 428.167 242.639 428.167 242.639 428.833 205.5 428.833ZM241.306 424.5 249.306 428.5 241.306 432.5Z"/><path d="M363.509 427.167 381.077 427.62 381.06 428.287 363.491 427.833ZM379.839 423.92 387.733 428.126 379.633 431.918Z"/><rect x="387.5" y="397.5" width="79" height="62" stroke="#2F528F" stroke-width="1.33333" stroke-miterlimit="8" fill="#4472C4"/><text fill="#FFFFFF" font-family="DengXian,DengXian_MSFontService,sans-serif" font-weight="400" font-size="24" transform="translate(399.908 436)">Conv</text><rect x="483.5" y="396.5" width="18" height="63" stroke="#BC8C00" stroke-width="1.33333" stroke-miterlimit="8" fill="#FFC000"/><path d="M0.0124198-0.333102 10.1268 0.0440141 10.1019 0.710218-0.0124198 0.333102ZM8.93097-3.66979 16.7764 0.625512 8.63289 4.32466Z" transform="matrix(1 0 0 -1 466.5 428.126)"/><path d="M501.501 427.167 567.533 427.356 567.532 428.023 501.499 427.833ZM566.211 423.686 574.199 427.708 566.188 431.686Z"/><path d="M345.5 202.5 350 202.5 350 159.5 359 159.5 359 202.5 363.5 202.5 354.5 211.5Z" stroke="#507E32" stroke-width="1.33333" stroke-miterlimit="8" fill="#70AD47" fill-rule="evenodd"/><text font-family="DengXian,DengXian_MSFontService,sans-serif" font-weight="700" font-size="24" transform="translate(365.817 189)">Convert</text><path d="M345.5 375.5 350 375.5 350 332.5 359 332.5 359 375.5 363.5 375.5 354.5 384.5Z" stroke="#507E32" stroke-width="1.33333" stroke-miterlimit="8" fill="#70AD47" fill-rule="evenodd"/><text font-family="DengXian,DengXian_MSFontService,sans-serif" font-weight="700" font-size="24" transform="translate(365.817 363)">Simplify<tspan font-weight="400" font-size="19" x="-245.17" y="137">ReLU</tspan></text><rect x="91.5001" y="481.5" width="14" height="30" stroke="#BC8C00" stroke-width="1.33333" stroke-miterlimit="8" fill="#FFC000"/><path d="M226.5 496.5C226.5 489.32 232.544 483.5 240 483.5 247.456 483.5 253.5 489.32 253.5 496.5 253.5 503.68 247.456 509.5 240 509.5 232.544 509.5 226.5 503.68 226.5 496.5Z" fill="#4472C4" fill-rule="evenodd"/><path d="M240 483.5 240 509.5M226.5 496.5 253.5 496.5" stroke="#2F528F" stroke-width="1.33333" stroke-miterlimit="8" fill="none" fill-rule="evenodd"/><path d="M226.5 496.5C226.5 489.32 232.544 483.5 240 483.5 247.456 483.5 253.5 489.32 253.5 496.5 253.5 503.68 247.456 509.5 240 509.5 232.544 509.5 226.5 503.68 226.5 496.5Z" stroke="#2F528F" stroke-width="1.33333" stroke-miterlimit="8" fill="none" fill-rule="evenodd"/><text font-family="DengXian,DengXian_MSFontService,sans-serif" font-weight="400" font-size="19" transform="translate(262.139 490)">Element<tspan font-size="19" x="64.8333" y="0">-</tspan><tspan font-size="19" x="74.1667" y="0">wise </tspan><tspan font-size="19" x="0" y="23">addition</tspan></text><rect x="411.5" y="484.5" width="43" height="26" stroke="#2F528F" stroke-width="1.33333" stroke-miterlimit="8" fill="#4472C4"/><text fill="#FFFFFF" font-family="DengXian,DengXian_MSFontService,sans-serif" font-weight="400" font-size="11" transform="translate(420.981 501)">Conv<tspan fill="#000000" font-size="19" x="40.1908" y="-1">Convolution</tspan><tspan fill="#000000" font-weight="700" font-size="24" x="-337.702" y="-395">Teacher </tspan><tspan fill="#000000" font-weight="700" font-size="24" x="-337.702" y="-366">Model</tspan><tspan fill="#000000" font-weight="700" font-size="24" x="-337.702" y="-250">Equivalent</tspan><tspan fill="#000000" font-weight="700" font-size="24" x="-337.702" y="-221">Teacher </tspan><tspan fill="#000000" font-weight="700" font-size="24" x="-337.702" y="-192">Model</tspan><tspan fill="#000000" font-weight="700" font-size="24" x="-337.702" y="-83">Student </tspan><tspan fill="#000000" font-weight="700" font-size="24" x="-337.702" y="-54">Model</tspan></text></g></svg>